<svg height="300" viewBox="0 0 640 640" width="300" xmlns="http://www.w3.org/2000/svg"><path d="m-32.70719-15.7069c0-9.389 1.01645-17.00028 2.2703-17.00028h61.52485c.89427 0 1.61922 5.42849 1.61922 12.12487v42.51834c0 5.94875-.64401 10.77116-1.43843 10.77116h-61.70564c-1.25385 0-2.2703-7.61129-2.2703-17.00028z" fill="#fff" transform="matrix(0 -4.51663274 .60317398 0 321.517845 218.521601)"/><path d="m0 13.87648c0-7.66377 6.21271-13.87648 13.87648-13.87648h462.50118c7.66377 0 13.87648 6.21271 13.87648 13.87648v37.26908c0 7.66377-6.21271 13.87648-13.87648 13.87648h-462.50118c-7.66377 0-13.87648-6.21271-13.87648-13.87648zm88.91347 29.93539c0 7.66059 6.21014 13.87073 13.87073 13.87073h15.79756l49.15393-49.15393h-64.9515c-7.66059 0-13.87073 6.21014-13.87073 13.87073zm384.52926 13.87073c4.85365 0 8.78831-3.93466 8.78831-8.78831v-30.47279c0-5.46366-4.42917-9.89283-9.89283-9.89283h-2.85306l-49.15393 49.15393zm-294.41259-49.15393-49.15393 49.15393h61.23513l49.15393-49.15393zm72.52957 0-49.15393 49.15393h62.44077l49.15393-49.15393zm73.73522 0-49.15393 49.15393h62.44077l49.15393-49.15393zm73.73521 0-49.15393 49.15393h59.16056l49.15393-49.15393z" transform="matrix(0 -.7389573 .7389573 0 297.08202044055 429.13705080411)"/><path d="m0 248.46212c0-7.66377 6.21271-13.87648 13.87648-13.87648h13.96883v-212.45828c0-5.86854 2.33127-11.49672 6.48095-15.64641 4.14969-4.14969 9.77787-6.48095 15.64641-6.48095h66.35301c5.86854 0 11.49672 2.33127 15.64641 6.48095 4.14969 4.14969 6.48095 9.77787 6.48095 15.64641v212.45828h10.48816c7.66377 0 13.87648 6.21271 13.87648 13.87648v17.6614c0 7.66377-6.21271 13.87648-13.87648 13.87648h-135.06472c-7.66377 0-13.87648-6.21271-13.87648-13.87648z" transform="matrix(.7389573 0 0 .7389573 259.68468739747 366.23178)"/><path d="m0-21.21547c11.71094 0 21.21547 9.50453 21.21547 21.21547s-9.50453 21.21547-21.21547 21.21547-21.21547-9.50453-21.21547-21.21547 9.50453-21.21547 21.21547-21.21547z" fill="#fff" transform="matrix(.83228894 0 0 .83228894 320.916083 420.596181)"/></svg>