<?xml version="1.0" encoding="UTF-8" standalone="no" ?>
<!DOCTYPE svg PUBLIC "-//W3C//DTD SVG 1.1//EN" "http://www.w3.org/Graphics/SVG/1.1/DTD/svg11.dtd">
<svg xmlns="http://www.w3.org/2000/svg" xmlns:xlink="http://www.w3.org/1999/xlink" version="1.1" width="300" height="300" viewBox="0 0 300 300" xml:space="preserve">
<desc>Created with Fabric.js 5.3.0</desc>
<defs>
</defs>
<g transform="matrix(0.1362795445 0 0 0.8000417231 150 194.8427281102)" id="uojvXdRCODUzdNmJwh37u"  >
<path style="stroke: rgb(0,0,0); stroke-width: 0; stroke-dasharray: none; stroke-linecap: butt; stroke-dashoffset: 0; stroke-linejoin: miter; stroke-miterlimit: 4; fill: rgb(0,0,0); fill-rule: nonzero; opacity: 1;" vector-effect="non-scaling-stroke"  transform=" translate(0, 0)" d="M -81.10814 -81.10814 L 81.10814 -81.10814 L 81.10814 81.10814 L -81.10814 81.10814 z" stroke-linecap="round" />
</g>
<g transform="matrix(0 0.1283319473 -0.4652535244 0 150 249.3238601857)" id="--0UQcgcZF1Rz439BOJ3K"  >
<path style="stroke: rgb(0,0,0); stroke-width: 0; stroke-dasharray: none; stroke-linecap: butt; stroke-dashoffset: 0; stroke-linejoin: miter; stroke-miterlimit: 4; fill: rgb(0,0,0); fill-rule: nonzero; opacity: 1;" vector-effect="non-scaling-stroke"  transform=" translate(0, 0)" d="M -81.10814 -81.10814 L 81.10814 -81.10814 L 81.10814 81.10814 L -81.10814 81.10814 z" stroke-linecap="round" />
</g>
<g transform="matrix(0.5781139601 0.5781139601 -0.5781139601 0.5781139601 150 95.0471698113)" id="1Zymc3TCq2aGAdgTA15fA"  >
<path style="stroke: rgb(214,10,184); stroke-width: 0; stroke-dasharray: none; stroke-linecap: butt; stroke-dashoffset: 0; stroke-linejoin: miter; stroke-miterlimit: 4; fill: rgb(218,83,10); fill-rule: nonzero; opacity: 1;" vector-effect="non-scaling-stroke"  transform=" translate(0, 0)" d="M -55.18868 -55.18868 L 55.18867000000001 -55.18868 L 55.18867000000001 55.18867000000001 L -55.18868 55.18867000000001 z" stroke-linecap="round" />
</g>
<g transform="matrix(0.6200637506 0.6200637506 -0.6200637506 0.6200637506 150 95.0471698113)" id="hlmTgg803j2482rr6-YL4"  >
<path style="stroke: rgb(0,0,0); stroke-width: 5; stroke-dasharray: none; stroke-linecap: butt; stroke-dashoffset: 0; stroke-linejoin: miter; stroke-miterlimit: 4; fill: rgb(218,83,10); fill-rule: nonzero; opacity: 1;" vector-effect="non-scaling-stroke"  transform=" translate(0, 0)" d="M -45.04716 -36.29279 C -45.04716 -41.1277 -41.12769 -45.04716 -36.29279 -45.04716 L 34.69 -45.04716 L 34.69 -45.04716 C 40.4101 -45.04716 45.04716 -40.4101 45.04716 -34.69 L 45.04716 34.23549 L 45.04716 34.23549 C 45.04716 40.20662 40.20661 45.04717 34.235479999999995 45.04717 L -35.83827000000001 45.04717 L -35.83827000000001 45.04717 C -40.924200000000006 45.04717 -45.04717000000001 40.92421 -45.04717000000001 35.83827 z" stroke-linecap="round" />
</g>
<g transform="matrix(0 0.7134433962 -0.7134433962 0 150 95.0471698113)" id="HTNG6WCDukBYvGChvwxZd"  >
<path style="stroke: none; stroke-width: 1; stroke-dasharray: none; stroke-linecap: butt; stroke-dashoffset: 0; stroke-linejoin: miter; stroke-miterlimit: 4; fill: rgb(0,0,0); fill-rule: nonzero; opacity: 1;" vector-effect="non-scaling-stroke"  transform=" translate(-40, -40)" d="M 41.17 72.5 L 80 40 L 41.17 7.5 L 41.17 28.105 L 0 28.105 L 0 51.952 L 41.17 51.952 L 41.17 72.5 z" stroke-linecap="round" />
</g>
</svg>