<svg height="300" viewBox="0 0 300 300" width="300" xmlns="http://www.w3.org/2000/svg"><path d="m-81.10814-81.10814h162.21628v162.21628h-162.21628z" transform="matrix(.09838834 0 0 .5775979 150 198.166946)"/><path d="m-81.10814-81.10814h162.21628v162.21628h-162.21628z" transform="matrix(0 .0926505 -.33589431 0 150 237.500129)"/><path d="m-55.18868-55.18868h110.37735v110.37735h-110.37735z" fill="#6d6d6d" transform="matrix(.417375 .417375 -.417375 .417375 150 126.118572)"/><path d="m-45.04716-36.29279c0-4.83491 3.91947-8.75437 8.75437-8.75437h70.98279c5.7201 0 10.35716 4.63706 10.35716 10.35716v68.92549c0 5.97113-4.84055 10.81168-10.81168 10.81168h-70.07375c-5.08593 0-9.2089-4.12296-9.2089-9.2089z" fill="#6d6d6d" stroke="#000" stroke-width="5" transform="matrix(.44766106 .44766106 -.44766106 .44766106 150 126.118572)"/><path d="m-39.85849-13.67925h79.71698v27.3585h-79.71698z" transform="matrix(.55578176 0 0 .48327594 150 126.118572)"/></svg>