<?xml version="1.0" encoding="UTF-8" standalone="no" ?>
<!DOCTYPE svg PUBLIC "-//W3C//DTD SVG 1.1//EN" "http://www.w3.org/Graphics/SVG/1.1/DTD/svg11.dtd">
<svg xmlns="http://www.w3.org/2000/svg" xmlns:xlink="http://www.w3.org/1999/xlink" version="1.1" width="300" height="300" viewBox="0 0 300 300" xml:space="preserve">
<desc>Created with Fabric.js 5.3.0</desc>
<defs>
</defs>
<g transform="matrix(0.5866052268 0 0 0.5866052268 150 150)" id="uojvXdRCODUzdNmJwh37u"  >
<path style="stroke: rgb(0,0,0); stroke-width: 0; stroke-dasharray: none; stroke-linecap: butt; stroke-dashoffset: 0; stroke-linejoin: miter; stroke-miterlimit: 4; fill: rgb(0,0,0); fill-rule: nonzero; opacity: 1;" vector-effect="non-scaling-stroke"  transform=" translate(0, 0)" d="M -81.10814 -81.10814 L 81.10814 -81.10814 L 81.10814 81.10814 L -81.10814 81.10814 z" stroke-linecap="round" />
</g>
<g transform="matrix(1 0 0 1 149.9999935474 149.9999935474)" id="rChf2iHwqrQ2iO2tB_Lf0"  >
<path style="stroke: rgb(113,92,27); stroke-width: 0; stroke-dasharray: none; stroke-linecap: butt; stroke-dashoffset: 0; stroke-linejoin: miter; stroke-miterlimit: 4; fill: rgb(45,201,55); fill-rule: nonzero; opacity: 1;" vector-effect="non-scaling-stroke"  transform=" translate(-36.95809, -36.95809)" d="M 36.95809 0 C 57.358959999999996 0 73.91618 16.55723 73.91618 36.95809 C 73.91618 57.358959999999996 57.35894999999999 73.91618 36.95809 73.91618 C 16.557219999999997 73.91618 0 57.35894999999999 0 36.95809 C 0 16.557219999999997 16.55723 0 36.95809 0 z M 10.83816 36.9581 C 10.83816 51.376310000000004 22.53989 63.07804 36.9581 63.07804 C 51.376310000000004 63.07804 63.07804 51.376310000000004 63.07804 36.9581 C 63.07804 22.53989 51.376310000000004 10.838160000000002 36.9581 10.838160000000002 C 22.53989 10.838160000000002 10.838160000000002 22.53989 10.838160000000002 36.9581 z" stroke-linecap="round" />
</g>
</svg>