<?xml version="1.0" encoding="UTF-8" standalone="no" ?>
<!DOCTYPE svg PUBLIC "-//W3C//DTD SVG 1.1//EN" "http://www.w3.org/Graphics/SVG/1.1/DTD/svg11.dtd">
<svg xmlns="http://www.w3.org/2000/svg" xmlns:xlink="http://www.w3.org/1999/xlink" version="1.1" width="300" height="300" viewBox="0 0 300 300" xml:space="preserve">
<desc>Created with Fabric.js 5.3.0</desc>
<defs>
</defs>
<g transform="matrix(0.5866052268 0 0 0.5866052268 150 150)" id="uojvXdRCODUzdNmJwh37u"  >
<path style="stroke: rgb(0,0,0); stroke-width: 0; stroke-dasharray: none; stroke-linecap: butt; stroke-dashoffset: 0; stroke-linejoin: miter; stroke-miterlimit: 4; fill: rgb(0,0,0); fill-rule: nonzero; opacity: 1;" vector-effect="non-scaling-stroke"  transform=" translate(0, 0)" d="M -81.10814 -81.10814 L 81.10814 -81.10814 L 81.10814 81.10814 L -81.10814 81.10814 z" stroke-linecap="round" />
</g>
<g transform="matrix(-1 0 0 -1 150 165.5924855491)" id="jvlHvYnzY22GlivWkMp6G"  >
<path style="stroke: rgb(0,0,0); stroke-width: 0; stroke-dasharray: none; stroke-linecap: butt; stroke-dashoffset: 0; stroke-linejoin: miter; stroke-miterlimit: 4; fill: rgb(204,50,50); fill-rule: nonzero; opacity: 1;" vector-effect="non-scaling-stroke"  transform=" translate(-36.83236, -22.22482)" d="M 0 7.66373 L 7.66373 0 L 36.83236 29.16863 L 66.00099 0 L 73.66472 7.66373 L 36.87881 44.44964 L 36.83236 44.40319 L 36.78591 44.44964 z" stroke-linecap="round" />
</g>
<g transform="matrix(1 0 0 1 150 134.4075144509)" id="ew7fK8vVroE04jS3AK2DU"  >
<path style="stroke: rgb(0,0,0); stroke-width: 0; stroke-dasharray: none; stroke-linecap: butt; stroke-dashoffset: 0; stroke-linejoin: miter; stroke-miterlimit: 4; fill: rgb(204,50,50); fill-rule: nonzero; opacity: 1;" vector-effect="non-scaling-stroke"  transform=" translate(-36.83236, -22.22482)" d="M 0 7.66373 L 7.66373 0 L 36.83236 29.16863 L 66.00099 0 L 73.66472 7.66373 L 36.87881 44.44964 L 36.83236 44.40319 L 36.78591 44.44964 z" stroke-linecap="round" />
</g>
</svg>