<?xml version="1.0" encoding="UTF-8" standalone="no" ?>
<!DOCTYPE svg PUBLIC "-//W3C//DTD SVG 1.1//EN" "http://www.w3.org/Graphics/SVG/1.1/DTD/svg11.dtd">
<svg xmlns="http://www.w3.org/2000/svg" xmlns:xlink="http://www.w3.org/1999/xlink" version="1.1" width="300" height="300" viewBox="0 0 640 640" xml:space="preserve">
<desc>Created with Fabric.js 5.3.0</desc>
<defs>
</defs>
<g transform="matrix(6.0341782346 0 0 0.8162501183 382.1721786925 253.1871938051)" id="EAOf1HToIjWI_vAghTuPK"  >
<path style="stroke: rgb(45,201,55); stroke-width: 0; stroke-dasharray: none; stroke-linecap: butt; stroke-dashoffset: 0; stroke-linejoin: miter; stroke-miterlimit: 4; fill: rgb(255,255,255); fill-rule: nonzero; opacity: 1;" vector-effect="non-scaling-stroke"  transform=" translate(0, 0)" d="M -32.70719 -15.7069 C -32.70719 -25.0959 -31.677599999999998 -32.70718 -30.407539999999997 -32.70718 L 31.067040000000006 -32.70718 L 31.067040000000006 -32.70718 C 31.972870000000007 -32.70718 32.707190000000004 -27.27869 32.707190000000004 -20.58231 L 32.707190000000004 21.936030000000002 L 32.707190000000004 21.936030000000002 C 32.707190000000004 27.884780000000003 32.054860000000005 32.707190000000004 31.250160000000005 32.707190000000004 L -30.407539999999994 32.707190000000004 L -30.407539999999994 32.707190000000004 C -31.677599999999995 32.707190000000004 -32.70719 25.095900000000004 -32.70719 15.706910000000004 z" stroke-linecap="round" />
</g>
<g transform="matrix(1 0 0 1 339.5138229235 252.5110290804)" id="Rs1nHyzHHi1rELm1c8fGA"  >
<path style="stroke: rgb(45,201,55); stroke-width: 0; stroke-dasharray: none; stroke-linecap: butt; stroke-dashoffset: 0; stroke-linejoin: miter; stroke-miterlimit: 4; fill: rgb(45,201,55); fill-rule: nonzero; opacity: 1;" vector-effect="non-scaling-stroke"  transform=" translate(-245.12707, -32.51102)" d="M 0 13.87648 C 0 6.21271 6.21271 0 13.87648 0 L 476.37766 0 C 484.04143 0 490.25414 6.21271 490.25414 13.87648 L 490.25414 51.14556 C 490.25414 58.80933 484.04143 65.02204 476.37766 65.02204 L 13.876480000000015 65.02204 C 6.212710000000015 65.02204 1.4210854715202004e-14 58.80933 1.4210854715202004e-14 51.14556 z M 88.91347 43.81187 C 88.91347 51.47246 95.12361 57.6826 102.7842 57.6826 L 118.58176 57.6826 L 167.73569 8.528669999999998 L 102.78419000000001 8.528669999999998 C 95.12360000000001 8.528669999999998 88.91346000000001 14.738809999999997 88.91346000000001 22.3994 z M 473.44273 57.6826 C 478.29638 57.6826 482.23104 53.74794 482.23104 48.89429 L 482.23104 18.421499999999998 C 482.23104 12.957839999999997 477.80187 8.528669999999998 472.33821 8.528669999999998 L 469.48515 8.528669999999998 L 420.33122 57.6826 z M 179.03014 8.52867 L 129.87621 57.6826 L 191.11133999999998 57.6826 L 240.26527 8.528669999999998 z M 251.55971 8.52867 L 202.40578 57.6826 L 264.84655 57.6826 L 314.00048 8.528669999999998 z M 325.29493 8.52867 L 276.141 57.6826 L 338.58177 57.6826 L 387.7357 8.528669999999998 z M 399.03014 8.52867 L 349.87621 57.6826 L 409.03677 57.6826 L 458.1907 8.528669999999998 z" stroke-linecap="round" />
</g>
<g transform="matrix(1 0 0 1 136.7679470765 320)" id="C1hGdeS6A_TuDfGZqUayT"  >
<path style="stroke: rgb(72,1,46); stroke-width: 0; stroke-dasharray: none; stroke-linecap: butt; stroke-dashoffset: 0; stroke-linejoin: miter; stroke-miterlimit: 4; fill: rgb(45,201,55); fill-rule: nonzero; opacity: 1;" vector-effect="non-scaling-stroke"  transform=" translate(-81.40884, -140)" d="M 0 248.46212 C 0 240.79835 6.21271 234.58564 13.87648 234.58564 L 27.84531 234.58564 L 27.84531 22.12736000000001 C 27.84531 16.25882000000001 30.17658 10.63064000000001 34.326260000000005 6.480950000000011 C 38.475950000000005 2.331260000000011 44.104130000000005 1.0658141036401503e-14 49.97267000000001 1.0658141036401503e-14 L 116.32568 1.0658141036401503e-14 C 122.19422 1.0658141036401503e-14 127.8224 2.3312700000000106 131.97209 6.480950000000011 C 136.12178 10.63064000000001 138.45304000000002 16.25882000000001 138.45304000000002 22.12736000000001 L 138.45304000000002 234.58564 L 148.9412 234.58564 C 156.60497 234.58564 162.81768 240.79835 162.81768 248.46212000000003 L 162.81768 266.12352000000004 C 162.81768 273.78729000000004 156.60497 280.00000000000006 148.94119999999998 280.00000000000006 L 13.876479999999987 280.00000000000006 C 6.212709999999986 280.00000000000006 -1.4210854715202004e-14 273.78729000000004 -1.4210854715202004e-14 266.12352000000004 z" stroke-linecap="round" />
</g>
<g transform="matrix(1.1263018041 0 0 1.1263018041 138.2209934542 253.5690691158)" id="WtJtMLYl2--BvLruUKXUm"  >
<path style="stroke: rgb(187,67,86); stroke-width: 0; stroke-dasharray: none; stroke-linecap: butt; stroke-dashoffset: 0; stroke-linejoin: miter; stroke-miterlimit: 4; fill: rgb(255,255,255); fill-rule: nonzero; opacity: 1;" vector-effect="non-scaling-stroke"  transform=" translate(0, 0)" d="M 0 -21.21547 C 11.71094 -21.21547 21.21547 -11.710939999999999 21.21547 0 C 21.21547 11.71094 11.710939999999999 21.21547 0 21.21547 C -11.71094 21.21547 -21.21547 11.710939999999999 -21.21547 0 C -21.21547 -11.71094 -11.710939999999999 -21.21547 0 -21.21547 z" stroke-linecap="round" />
</g>
</svg>