<svg width="237" height="144" viewBox="0 0 237 144" fill="none" xmlns="http://www.w3.org/2000/svg">
<rect x="0.5" y="112.5" width="139" height="31" fill="#8CF269" stroke="#1E1E1E"/>
<path d="M64.4205 128.636C64.4205 129.557 64.2543 130.352 63.9219 131.023C63.5895 131.693 63.1335 132.21 62.554 132.574C61.9744 132.938 61.3125 133.119 60.5682 133.119C59.8239 133.119 59.1619 132.938 58.5824 132.574C58.0028 132.21 57.5469 131.693 57.2145 131.023C56.8821 130.352 56.7159 129.557 56.7159 128.636C56.7159 127.716 56.8821 126.92 57.2145 126.25C57.5469 125.58 58.0028 125.062 58.5824 124.699C59.1619 124.335 59.8239 124.153 60.5682 124.153C61.3125 124.153 61.9744 124.335 62.554 124.699C63.1335 125.062 63.5895 125.58 63.9219 126.25C64.2543 126.92 64.4205 127.716 64.4205 128.636ZM63.3977 128.636C63.3977 127.881 63.2713 127.243 63.0185 126.723C62.7685 126.203 62.429 125.81 62 125.543C61.5739 125.276 61.0966 125.142 60.5682 125.142C60.0398 125.142 59.5611 125.276 59.1321 125.543C58.706 125.81 58.3665 126.203 58.1136 126.723C57.8636 127.243 57.7386 127.881 57.7386 128.636C57.7386 129.392 57.8636 130.03 58.1136 130.55C58.3665 131.07 58.706 131.463 59.1321 131.73C59.5611 131.997 60.0398 132.131 60.5682 132.131C61.0966 132.131 61.5739 131.997 62 131.73C62.429 131.463 62.7685 131.07 63.0185 130.55C63.2713 130.03 63.3977 129.392 63.3977 128.636ZM73.1179 124.273V133H72.0952L67.3395 126.148H67.2543V133H66.1974V124.273H67.2202L71.9929 131.142H72.0781V124.273H73.1179Z" fill="white"/>
<rect x="27.5" y="37.5" width="28" height="29" fill="black" stroke="#8CF269"/>
<line x1="55.6464" y1="36.6464" x2="84.6464" y2="7.64645" stroke="#8CF269"/>
<line x1="26.6464" y1="37.6464" x2="55.6464" y2="8.64645" stroke="#8CF269"/>
<line x1="55.6464" y1="66.6464" x2="84.6464" y2="37.6465" stroke="#8CF269"/>
<line x1="70.5" y1="52" x2="70.5" y2="82" stroke="#8CF269"/>
<line x1="78.5" y1="43" x2="78.5" y2="73" stroke="#8CF269"/>
<line x1="70" y1="81.5" x2="95" y2="81.5" stroke="#8CF269"/>
<line x1="78" y1="72.5" x2="94" y2="72.5" stroke="#8CF269"/>
<rect x="94" y="58" width="15" height="33" fill="#8CF269"/>
<g style="mix-blend-mode:hard-light">
<ellipse cx="65" cy="102.5" rx="41" ry="41.5" fill="#8CF269" fill-opacity="0.5"/>
</g>
<path d="M149 15C149 6.71573 155.716 0 164 0H222C230.284 0 237 6.71573 237 15V37C237 45.2843 230.284 52 222 52H164C155.716 52 149 45.2843 149 37V15Z" fill="#0C0B0B"/>
</svg>
