<svg width="140" height="137" viewBox="0 0 140 137" fill="none" xmlns="http://www.w3.org/2000/svg">
<rect x="0.5" y="105.5" width="139" height="31" fill="#060606" stroke="#B6B6B6"/>
<path d="M36.7841 117.273H37.8409V123.051C37.8409 123.648 37.7003 124.18 37.419 124.649C37.1406 125.115 36.7472 125.483 36.2386 125.753C35.7301 126.02 35.1335 126.153 34.4489 126.153C33.7642 126.153 33.1676 126.02 32.6591 125.753C32.1506 125.483 31.7557 125.115 31.4744 124.649C31.196 124.18 31.0568 123.648 31.0568 123.051V117.273H32.1136V122.966C32.1136 123.392 32.2074 123.771 32.3949 124.104C32.5824 124.433 32.8494 124.693 33.196 124.884C33.5455 125.071 33.9631 125.165 34.4489 125.165C34.9347 125.165 35.3523 125.071 35.7017 124.884C36.0511 124.693 36.3182 124.433 36.5028 124.104C36.6903 123.771 36.7841 123.392 36.7841 122.966V117.273ZM46.8718 117.273V126H45.8491L41.0934 119.148H41.0082V126H39.9513V117.273H40.9741L45.7468 124.142H45.832V117.273H46.8718ZM49.3445 126H48.2365L51.4411 117.273H52.532L55.7365 126H54.6286L52.0206 118.653H51.9524L49.3445 126ZM49.7536 122.591H54.2195V123.528H49.7536V122.591ZM56.6335 117.273L59.2244 124.619H59.3267L61.9176 117.273H63.0256L59.821 126H58.7301L55.5256 117.273H56.6335ZM63.9929 126H62.8849L66.0895 117.273H67.1804L70.3849 126H69.277L66.669 118.653H66.6009L63.9929 126ZM64.402 122.591H68.8679V123.528H64.402V122.591ZM72.8011 117.273V126H71.7443V117.273H72.8011ZM74.9201 126V117.273H75.9769V125.062H80.0337V126H74.9201ZM82.5788 126H81.4709L84.6754 117.273H85.7663L88.9709 126H87.8629L85.255 118.653H85.1868L82.5788 126ZM82.9879 122.591H87.4538V123.528H82.9879V122.591ZM90.3303 126V117.273H93.3814C93.9893 117.273 94.4908 117.378 94.8857 117.588C95.2805 117.795 95.5746 118.075 95.7678 118.428C95.9609 118.777 96.0575 119.165 96.0575 119.591C96.0575 119.966 95.9908 120.276 95.8572 120.52C95.7266 120.764 95.5533 120.957 95.3374 121.099C95.1243 121.241 94.8928 121.347 94.6428 121.415V121.5C94.9098 121.517 95.1783 121.611 95.4482 121.781C95.718 121.952 95.9439 122.196 96.1257 122.514C96.3075 122.832 96.3984 123.222 96.3984 123.682C96.3984 124.119 96.299 124.513 96.1001 124.862C95.9013 125.212 95.5874 125.489 95.1584 125.693C94.7294 125.898 94.1712 126 93.4837 126H90.3303ZM91.3871 125.062H93.4837C94.174 125.062 94.6641 124.929 94.9538 124.662C95.2464 124.392 95.3928 124.065 95.3928 123.682C95.3928 123.386 95.3175 123.114 95.1669 122.864C95.0163 122.611 94.8018 122.409 94.5234 122.259C94.245 122.105 93.9155 122.028 93.5348 122.028H91.3871V125.062ZM91.3871 121.108H93.3473C93.6655 121.108 93.9524 121.045 94.2081 120.92C94.4666 120.795 94.6712 120.619 94.8217 120.392C94.9751 120.165 95.0518 119.898 95.0518 119.591C95.0518 119.207 94.9183 118.882 94.6513 118.615C94.3842 118.345 93.9609 118.21 93.3814 118.21H91.3871V121.108ZM98.1349 126V117.273H99.1918V125.062H103.249V126H98.1349ZM104.885 126V117.273H110.152V118.21H105.942V121.159H109.879V122.097H105.942V125.062H110.22V126H104.885Z" fill="white"/>
<rect x="27.5" y="30.5" width="28" height="29" fill="black" stroke="#B6B6B6"/>
<line x1="55.6464" y1="29.6464" x2="84.6464" y2="0.646448" stroke="#B6B6B6"/>
<line x1="26.6464" y1="30.6464" x2="55.6464" y2="1.64645" stroke="#B6B6B6"/>
<line x1="55.6464" y1="59.6464" x2="84.6464" y2="30.6464" stroke="#B6B6B6"/>
<line x1="70.5" y1="45" x2="70.5" y2="75" stroke="#B6B6B6"/>
<line x1="78.5" y1="36" x2="78.5" y2="66" stroke="#B6B6B6"/>
<line x1="70" y1="74.5" x2="95" y2="74.5" stroke="#B6B6B6"/>
<line x1="78" y1="65.5" x2="94" y2="65.5" stroke="#B6B6B6"/>
<rect x="94" y="51" width="15" height="33" fill="#B6B6B6"/>
</svg>
