<svg width="140" height="137" viewBox="0 0 140 137" fill="none" xmlns="http://www.w3.org/2000/svg">
<rect x="0.5" y="105.5" width="139" height="31" fill="#060606" stroke="#FF4C4C"/>
<path d="M66.4205 121.636C66.4205 122.557 66.2543 123.352 65.9219 124.023C65.5895 124.693 65.1335 125.21 64.554 125.574C63.9744 125.938 63.3125 126.119 62.5682 126.119C61.8239 126.119 61.1619 125.938 60.5824 125.574C60.0028 125.21 59.5469 124.693 59.2145 124.023C58.8821 123.352 58.7159 122.557 58.7159 121.636C58.7159 120.716 58.8821 119.92 59.2145 119.25C59.5469 118.58 60.0028 118.062 60.5824 117.699C61.1619 117.335 61.8239 117.153 62.5682 117.153C63.3125 117.153 63.9744 117.335 64.554 117.699C65.1335 118.062 65.5895 118.58 65.9219 119.25C66.2543 119.92 66.4205 120.716 66.4205 121.636ZM65.3977 121.636C65.3977 120.881 65.2713 120.243 65.0185 119.723C64.7685 119.203 64.429 118.81 64 118.543C63.5739 118.276 63.0966 118.142 62.5682 118.142C62.0398 118.142 61.5611 118.276 61.1321 118.543C60.706 118.81 60.3665 119.203 60.1136 119.723C59.8636 120.243 59.7386 120.881 59.7386 121.636C59.7386 122.392 59.8636 123.03 60.1136 123.55C60.3665 124.07 60.706 124.463 61.1321 124.73C61.5611 124.997 62.0398 125.131 62.5682 125.131C63.0966 125.131 63.5739 124.997 64 124.73C64.429 124.463 64.7685 124.07 65.0185 123.55C65.2713 123.03 65.3977 122.392 65.3977 121.636ZM68.1974 126V117.273H73.4304V118.21H69.2543V121.159H73.0384V122.097H69.2543V126H68.1974ZM75.2404 126V117.273H80.4734V118.21H76.2972V121.159H80.0813V122.097H76.2972V126H75.2404Z" fill="white"/>
<rect x="27.5" y="30.5" width="28" height="29" fill="black" stroke="#FF4C4C"/>
<line x1="55.6464" y1="29.6464" x2="84.6464" y2="0.646448" stroke="#FF4C4C"/>
<line x1="26.6464" y1="30.6464" x2="55.6464" y2="1.64645" stroke="#FF4C4C"/>
<line x1="55.6464" y1="59.6464" x2="84.6464" y2="30.6464" stroke="#FF4C4C"/>
<line x1="70.5" y1="45" x2="70.5" y2="75" stroke="#FF4C4C"/>
<line x1="78.5" y1="36" x2="78.5" y2="66" stroke="#FF4C4C"/>
<line x1="70" y1="74.5" x2="95" y2="74.5" stroke="#FF4C4C"/>
<line x1="78" y1="65.5" x2="94" y2="65.5" stroke="#FF4C4C"/>
<rect x="94" y="51" width="15" height="33" fill="#FF4C4C"/>
</svg>
