<svg width="140" height="137" viewBox="0 0 140 137" fill="none" xmlns="http://www.w3.org/2000/svg">
<rect x="0.5" y="105.5" width="139" height="31" fill="#060606" stroke="#83E734"/>
<path d="M67.4205 121.636C67.4205 122.557 67.2543 123.352 66.9219 124.023C66.5895 124.693 66.1335 125.21 65.554 125.574C64.9744 125.938 64.3125 126.119 63.5682 126.119C62.8239 126.119 62.1619 125.938 61.5824 125.574C61.0028 125.21 60.5469 124.693 60.2145 124.023C59.8821 123.352 59.7159 122.557 59.7159 121.636C59.7159 120.716 59.8821 119.92 60.2145 119.25C60.5469 118.58 61.0028 118.062 61.5824 117.699C62.1619 117.335 62.8239 117.153 63.5682 117.153C64.3125 117.153 64.9744 117.335 65.554 117.699C66.1335 118.062 66.5895 118.58 66.9219 119.25C67.2543 119.92 67.4205 120.716 67.4205 121.636ZM66.3977 121.636C66.3977 120.881 66.2713 120.243 66.0185 119.723C65.7685 119.203 65.429 118.81 65 118.543C64.5739 118.276 64.0966 118.142 63.5682 118.142C63.0398 118.142 62.5611 118.276 62.1321 118.543C61.706 118.81 61.3665 119.203 61.1136 119.723C60.8636 120.243 60.7386 120.881 60.7386 121.636C60.7386 122.392 60.8636 123.03 61.1136 123.55C61.3665 124.07 61.706 124.463 62.1321 124.73C62.5611 124.997 63.0398 125.131 63.5682 125.131C64.0966 125.131 64.5739 124.997 65 124.73C65.429 124.463 65.7685 124.07 66.0185 123.55C66.2713 123.03 66.3977 122.392 66.3977 121.636ZM76.1179 117.273V126H75.0952L70.3395 119.148H70.2543V126H69.1974V117.273H70.2202L74.9929 124.142H75.0781V117.273H76.1179Z" fill="white"/>
<rect x="27.5" y="30.5" width="28" height="29" fill="black" stroke="#83E734"/>
<line x1="55.6464" y1="29.6464" x2="84.6464" y2="0.646448" stroke="#83E734"/>
<line x1="26.6464" y1="30.6464" x2="55.6464" y2="1.64645" stroke="#83E734"/>
<line x1="55.6464" y1="59.6464" x2="84.6464" y2="30.6464" stroke="#83E734"/>
<line x1="70.5" y1="45" x2="70.5" y2="75" stroke="#83E734"/>
<line x1="78.5" y1="36" x2="78.5" y2="66" stroke="#83E734"/>
<line x1="70" y1="74.5" x2="95" y2="74.5" stroke="#83E734"/>
<line x1="78" y1="65.5" x2="94" y2="65.5" stroke="#83E734"/>
<rect x="94" y="51" width="15" height="33" fill="#83E734"/>
</svg>
