<svg width="140" height="137" viewBox="0 0 140 137" fill="none" xmlns="http://www.w3.org/2000/svg">
<rect x="0.5" y="105.5" width="139" height="31" fill="#060606" stroke="#CEE734"/>
<path d="M45.8295 119.455C45.7784 119.023 45.571 118.688 45.2074 118.449C44.8438 118.21 44.3977 118.091 43.8693 118.091C43.483 118.091 43.1449 118.153 42.8551 118.278C42.5682 118.403 42.3438 118.575 42.1818 118.794C42.0227 119.013 41.9432 119.261 41.9432 119.54C41.9432 119.773 41.9986 119.973 42.1094 120.141C42.223 120.305 42.3679 120.443 42.544 120.554C42.7202 120.662 42.9048 120.751 43.098 120.822C43.2912 120.891 43.4688 120.946 43.6307 120.989L44.517 121.227C44.7443 121.287 44.9972 121.369 45.2756 121.474C45.5568 121.58 45.8253 121.723 46.081 121.905C46.3395 122.084 46.5526 122.314 46.7202 122.595C46.8878 122.876 46.9716 123.222 46.9716 123.631C46.9716 124.102 46.848 124.528 46.6009 124.909C46.3565 125.29 45.9986 125.592 45.527 125.817C45.0582 126.041 44.4886 126.153 43.8182 126.153C43.1932 126.153 42.652 126.053 42.1946 125.851C41.7401 125.649 41.3821 125.368 41.1207 125.007C40.8622 124.646 40.7159 124.227 40.6818 123.75H41.7727C41.8011 124.08 41.9119 124.352 42.1051 124.568C42.3011 124.781 42.5483 124.94 42.8466 125.045C43.1477 125.148 43.4716 125.199 43.8182 125.199C44.2216 125.199 44.5838 125.134 44.9048 125.003C45.2259 124.869 45.4801 124.685 45.6676 124.449C45.8551 124.21 45.9489 123.932 45.9489 123.614C45.9489 123.324 45.8679 123.088 45.706 122.906C45.544 122.724 45.331 122.577 45.0668 122.463C44.8026 122.349 44.517 122.25 44.2102 122.165L43.1364 121.858C42.4545 121.662 41.9148 121.382 41.517 121.018C41.1193 120.655 40.9205 120.179 40.9205 119.591C40.9205 119.102 41.0526 118.676 41.3168 118.312C41.5838 117.946 41.9418 117.662 42.3906 117.46C42.8423 117.256 43.3466 117.153 43.9034 117.153C44.4659 117.153 44.9659 117.254 45.4034 117.456C45.8409 117.655 46.1875 117.928 46.4432 118.274C46.7017 118.621 46.8381 119.014 46.8523 119.455H45.8295ZM48.2319 118.21V117.273H54.7773V118.21H52.033V126H50.9762V118.21H48.2319ZM55.7468 126H54.6388L57.8434 117.273H58.9343L62.1388 126H61.0309L58.4229 118.653H58.3548L55.7468 126ZM56.1559 122.591H60.6218V123.528H56.1559V122.591ZM70.4187 117.273V126H69.396L64.6403 119.148H64.555V126H63.4982V117.273H64.521L69.2937 124.142H69.3789V117.273H70.4187ZM75.2266 126H72.5334V117.273H75.3459C76.1925 117.273 76.9169 117.447 77.5192 117.797C78.1214 118.143 78.5831 118.642 78.9041 119.293C79.2251 119.94 79.3857 120.716 79.3857 121.619C79.3857 122.528 79.2237 123.311 78.8999 123.967C78.576 124.621 78.1044 125.124 77.4851 125.476C76.8658 125.825 76.1129 126 75.2266 126ZM73.5902 125.062H75.1584C75.88 125.062 76.478 124.923 76.9524 124.645C77.4268 124.366 77.7805 123.97 78.0135 123.456C78.2464 122.942 78.3629 122.33 78.3629 121.619C78.3629 120.915 78.2479 120.308 78.0178 119.8C77.7876 119.288 77.4439 118.896 76.9865 118.624C76.5291 118.348 75.9595 118.21 75.2777 118.21H73.5902V125.062ZM84.5334 126V117.273H87.5845C88.1925 117.273 88.6939 117.378 89.0888 117.588C89.4837 117.795 89.7777 118.075 89.9709 118.428C90.1641 118.777 90.2607 119.165 90.2607 119.591C90.2607 119.966 90.1939 120.276 90.0604 120.52C89.9297 120.764 89.7564 120.957 89.5405 121.099C89.3274 121.241 89.0959 121.347 88.8459 121.415V121.5C89.1129 121.517 89.3814 121.611 89.6513 121.781C89.9212 121.952 90.147 122.196 90.3288 122.514C90.5107 122.832 90.6016 123.222 90.6016 123.682C90.6016 124.119 90.5021 124.513 90.3033 124.862C90.1044 125.212 89.7905 125.489 89.3615 125.693C88.9325 125.898 88.3743 126 87.6868 126H84.5334ZM85.5902 125.062H87.6868C88.3771 125.062 88.8672 124.929 89.157 124.662C89.4496 124.392 89.5959 124.065 89.5959 123.682C89.5959 123.386 89.5206 123.114 89.37 122.864C89.2195 122.611 89.005 122.409 88.7266 122.259C88.4482 122.105 88.1186 122.028 87.7379 122.028H85.5902V125.062ZM85.5902 121.108H87.5504C87.8686 121.108 88.1555 121.045 88.4112 120.92C88.6697 120.795 88.8743 120.619 89.0249 120.392C89.1783 120.165 89.255 119.898 89.255 119.591C89.255 119.207 89.1214 118.882 88.8544 118.615C88.5874 118.345 88.1641 118.21 87.5845 118.21H85.5902V121.108ZM91.5881 117.273H92.7983L95.2188 121.347H95.321L97.7415 117.273H98.9517L95.7983 122.403V126H94.7415V122.403L91.5881 117.273Z" fill="white"/>
<rect x="27.5" y="30.5" width="28" height="29" fill="black" stroke="#CEE734"/>
<line x1="55.6464" y1="29.6464" x2="84.6464" y2="0.646448" stroke="#DEEB41"/>
<line x1="26.6464" y1="30.6464" x2="55.6464" y2="1.64645" stroke="#DEEB41"/>
<line x1="55.6464" y1="59.6464" x2="84.6464" y2="30.6464" stroke="#DEEB41"/>
<line x1="70.5" y1="45" x2="70.5" y2="75" stroke="#DEEB41"/>
<line x1="78.5" y1="36" x2="78.5" y2="66" stroke="#DEEB41"/>
<line x1="70" y1="74.5" x2="95" y2="74.5" stroke="#DEEB41"/>
<line x1="78" y1="65.5" x2="94" y2="65.5" stroke="#DEEB41"/>
<rect x="94" y="51" width="15" height="33" fill="#DEEB41"/>
</svg>
