<svg width="223" height="291" viewBox="0 0 223 291" fill="none" xmlns="http://www.w3.org/2000/svg">
<g filter="url(#filter0_d_0_1)">
<path d="M4 20C4 8.9543 12.9543 0 24 0H199C210.046 0 219 8.95431 219 20V142C219 153.046 210.046 162 199 162H24C12.9543 162 4 153.046 4 142V20Z" fill="#0B0A0A"/>
<path d="M24 2.5H199C208.665 2.5 216.5 10.335 216.5 20V142C216.5 151.665 208.665 159.5 199 159.5H24C14.335 159.5 6.5 151.665 6.5 142V20C6.5 10.335 14.335 2.5 24 2.5Z" stroke="#92C20B" stroke-width="5"/>
</g>
<rect x="44.5" y="264.5" width="135" height="24" fill="#92C20B" stroke="black" stroke-width="5"/>
<rect x="96.5" y="164.5" width="29" height="95" fill="#92C20B" stroke="black" stroke-width="5"/>
<path d="M56.7614 73.4545H58.8636L63.8068 85.5284H63.9773L68.9205 73.4545H71.0227V88H69.375V76.9489H69.233L64.6875 88H63.0966L58.5511 76.9489H58.4091V88H56.7614V73.4545ZM86.8271 80.7273C86.8271 82.2614 86.5501 83.5871 85.9961 84.7045C85.4421 85.822 84.6822 86.6837 83.7163 87.2898C82.7504 87.8958 81.6471 88.1989 80.4066 88.1989C79.1661 88.1989 78.0629 87.8958 77.0969 87.2898C76.131 86.6837 75.3711 85.822 74.8171 84.7045C74.2631 83.5871 73.9862 82.2614 73.9862 80.7273C73.9862 79.1932 74.2631 77.8674 74.8171 76.75C75.3711 75.6326 76.131 74.7708 77.0969 74.1648C78.0629 73.5587 79.1661 73.2557 80.4066 73.2557C81.6471 73.2557 82.7504 73.5587 83.7163 74.1648C84.6822 74.7708 85.4421 75.6326 85.9961 76.75C86.5501 77.8674 86.8271 79.1932 86.8271 80.7273ZM85.1225 80.7273C85.1225 79.4678 84.9118 78.4048 84.4904 77.5384C84.0737 76.6719 83.5079 76.0161 82.793 75.571C82.0827 75.1259 81.2873 74.9034 80.4066 74.9034C79.5259 74.9034 78.7281 75.1259 78.0131 75.571C77.3029 76.0161 76.7371 76.6719 76.3157 77.5384C75.899 78.4048 75.6907 79.4678 75.6907 80.7273C75.6907 81.9867 75.899 83.0497 76.3157 83.9162C76.7371 84.7827 77.3029 85.4384 78.0131 85.8835C78.7281 86.3286 79.5259 86.5511 80.4066 86.5511C81.2873 86.5511 82.0827 86.3286 82.793 85.8835C83.5079 85.4384 84.0737 84.7827 84.4904 83.9162C84.9118 83.0497 85.1225 81.9867 85.1225 80.7273ZM89.7017 73.4545L94.0199 85.6989H94.1903L98.5085 73.4545H100.355L95.0142 88H93.196L87.8551 73.4545H89.7017ZM102.621 88V73.4545H111.399V75.017H104.382V79.9318H110.945V81.4943H104.382V86.4375H111.513V88H102.621ZM132.472 80.7273C132.472 82.2614 132.195 83.5871 131.641 84.7045C131.087 85.822 130.327 86.6837 129.361 87.2898C128.395 87.8958 127.292 88.1989 126.051 88.1989C124.811 88.1989 123.707 87.8958 122.741 87.2898C121.776 86.6837 121.016 85.822 120.462 84.7045C119.908 83.5871 119.631 82.2614 119.631 80.7273C119.631 79.1932 119.908 77.8674 120.462 76.75C121.016 75.6326 121.776 74.7708 122.741 74.1648C123.707 73.5587 124.811 73.2557 126.051 73.2557C127.292 73.2557 128.395 73.5587 129.361 74.1648C130.327 74.7708 131.087 75.6326 131.641 76.75C132.195 77.8674 132.472 79.1932 132.472 80.7273ZM130.767 80.7273C130.767 79.4678 130.556 78.4048 130.135 77.5384C129.718 76.6719 129.152 76.0161 128.438 75.571C127.727 75.1259 126.932 74.9034 126.051 74.9034C125.17 74.9034 124.373 75.1259 123.658 75.571C122.947 76.0161 122.382 76.6719 121.96 77.5384C121.544 78.4048 121.335 79.4678 121.335 80.7273C121.335 81.9867 121.544 83.0497 121.96 83.9162C122.382 84.7827 122.947 85.4384 123.658 85.8835C124.373 86.3286 125.17 86.5511 126.051 86.5511C126.932 86.5511 127.727 86.3286 128.438 85.8835C129.152 85.4384 129.718 84.7827 130.135 83.9162C130.556 83.0497 130.767 81.9867 130.767 80.7273ZM135.346 73.4545L139.664 85.6989H139.835L144.153 73.4545H146L140.659 88H138.841L133.5 73.4545H135.346ZM148.265 88V73.4545H157.044V75.017H150.027V79.9318H156.589V81.4943H150.027V86.4375H157.157V88H148.265ZM160.218 88V73.4545H165.133C166.27 73.4545 167.202 73.6487 167.931 74.0369C168.661 74.4205 169.2 74.9484 169.551 75.6207C169.901 76.2931 170.076 77.0578 170.076 77.9148C170.076 78.7718 169.901 79.5317 169.551 80.1946C169.2 80.8575 168.663 81.3783 167.939 81.7571C167.214 82.1312 166.288 82.3182 165.162 82.3182H161.184V80.7273H165.105C165.881 80.7273 166.506 80.6136 166.98 80.3864C167.458 80.1591 167.804 79.8371 168.017 79.4205C168.234 78.9991 168.343 78.4972 168.343 77.9148C168.343 77.3324 168.234 76.8234 168.017 76.3878C167.799 75.9522 167.451 75.616 166.973 75.3793C166.494 75.1378 165.862 75.017 165.076 75.017H161.98V88H160.218ZM167.065 81.4659L170.645 88H168.599L165.076 81.4659H167.065Z" fill="#92C20B"/>
<defs>
<filter id="filter0_d_0_1" x="0" y="0" width="223" height="170" filterUnits="userSpaceOnUse" color-interpolation-filters="sRGB">
<feFlood flood-opacity="0" result="BackgroundImageFix"/>
<feColorMatrix in="SourceAlpha" type="matrix" values="0 0 0 0 0 0 0 0 0 0 0 0 0 0 0 0 0 0 127 0" result="hardAlpha"/>
<feOffset dy="4"/>
<feGaussianBlur stdDeviation="2"/>
<feComposite in2="hardAlpha" operator="out"/>
<feColorMatrix type="matrix" values="0 0 0 0 0 0 0 0 0 0 0 0 0 0 0 0 0 0 0.25 0"/>
<feBlend mode="normal" in2="BackgroundImageFix" result="effect1_dropShadow_0_1"/>
<feBlend mode="normal" in="SourceGraphic" in2="effect1_dropShadow_0_1" result="shape"/>
</filter>
</defs>
</svg>
