<svg width="223" height="291" viewBox="0 0 223 291" fill="none" xmlns="http://www.w3.org/2000/svg">
<g filter="url(#filter0_d_0_1)">
<path d="M4 20C4 8.9543 12.9543 0 24 0H199C210.046 0 219 8.95431 219 20V142C219 153.046 210.046 162 199 162H24C12.9543 162 4 153.046 4 142V20Z" fill="#0B0A0A"/>
<path d="M24 2.5H199C208.665 2.5 216.5 10.335 216.5 20V142C216.5 151.665 208.665 159.5 199 159.5H24C14.335 159.5 6.5 151.665 6.5 142V20C6.5 10.335 14.335 2.5 24 2.5Z" stroke="#92C20B" stroke-width="5"/>
</g>
<rect x="44.5" y="264.5" width="135" height="24" fill="#92C20B" stroke="black" stroke-width="5"/>
<rect x="96.5" y="164.5" width="29" height="95" fill="#92C20B" stroke="black" stroke-width="5"/>
<defs>
<filter id="filter0_d_0_1" x="0" y="0" width="223" height="170" filterUnits="userSpaceOnUse" color-interpolation-filters="sRGB">
<feFlood flood-opacity="0" result="BackgroundImageFix"/>
<feColorMatrix in="SourceAlpha" type="matrix" values="0 0 0 0 0 0 0 0 0 0 0 0 0 0 0 0 0 0 127 0" result="hardAlpha"/>
<feOffset dy="4"/>
<feGaussianBlur stdDeviation="2"/>
<feComposite in2="hardAlpha" operator="out"/>
<feColorMatrix type="matrix" values="0 0 0 0 0 0 0 0 0 0 0 0 0 0 0 0 0 0 0.25 0"/>
<feBlend mode="normal" in2="BackgroundImageFix" result="effect1_dropShadow_0_1"/>
<feBlend mode="normal" in="SourceGraphic" in2="effect1_dropShadow_0_1" result="shape"/>
</filter>
</defs>
</svg>
