<svg width="223" height="291" viewBox="0 0 223 291" fill="none" xmlns="http://www.w3.org/2000/svg">
<g filter="url(#filter0_d_0_1)">
<path d="M4 20C4 8.9543 12.9543 0 24 0H199C210.046 0 219 8.95431 219 20V142C219 153.046 210.046 162 199 162H24C12.9543 162 4 153.046 4 142V20Z" fill="#0B0A0A"/>
<path d="M24 2.5H199C208.665 2.5 216.5 10.335 216.5 20V142C216.5 151.665 208.665 159.5 199 159.5H24C14.335 159.5 6.5 151.665 6.5 142V20C6.5 10.335 14.335 2.5 24 2.5Z" stroke="#92C20B" stroke-width="5"/>
</g>
<rect x="44.5" y="264.5" width="135" height="24" fill="#92C20B" stroke="black" stroke-width="5"/>
<rect x="96.5" y="164.5" width="29" height="95" fill="#92C20B" stroke="black" stroke-width="5"/>
<path d="M55.9659 76.017V74.4545H66.875V76.017H62.3011V89H60.5398V76.017H55.9659ZM69.5934 89V74.4545H78.3718V76.017H71.3548V80.9318H77.9173V82.4943H71.3548V87.4375H78.4854V89H69.5934ZM82.3988 74.4545L86.1488 80.5057H86.2624L90.0124 74.4545H92.0863L87.5124 81.7273L92.0863 89H90.0124L86.2624 83.0625H86.1488L82.3988 89H80.3249L85.0124 81.7273L80.3249 74.4545H82.3988ZM93.5831 76.017V74.4545H104.492V76.017H99.9183V89H98.157V76.017H93.5831ZM112.836 89V74.4545H114.597V80.9318H122.353V74.4545H124.114V89H122.353V82.4943H114.597V89H112.836ZM127.64 89V74.4545H136.419V76.017H129.402V80.9318H135.964V82.4943H129.402V87.4375H136.532V89H127.64ZM139.593 89V74.4545H144.508C145.645 74.4545 146.577 74.6487 147.306 75.0369C148.036 75.4205 148.575 75.9484 148.926 76.6207C149.276 77.2931 149.451 78.0578 149.451 78.9148C149.451 79.7718 149.276 80.5317 148.926 81.1946C148.575 81.8575 148.038 82.3783 147.314 82.7571C146.589 83.1312 145.663 83.3182 144.537 83.3182H140.559V81.7273H144.48C145.256 81.7273 145.881 81.6136 146.355 81.3864C146.833 81.1591 147.179 80.8371 147.392 80.4205C147.609 79.9991 147.718 79.4972 147.718 78.9148C147.718 78.3324 147.609 77.8234 147.392 77.3878C147.174 76.9522 146.826 76.616 146.348 76.3793C145.869 76.1378 145.237 76.017 144.451 76.017H141.355V89H139.593ZM146.44 82.4659L150.02 89H147.974L144.451 82.4659H146.44ZM152.386 89V74.4545H161.165V76.017H154.148V80.9318H160.71V82.4943H154.148V87.4375H161.278V89H152.386Z" fill="#92C20B"/>
<defs>
<filter id="filter0_d_0_1" x="0" y="0" width="223" height="170" filterUnits="userSpaceOnUse" color-interpolation-filters="sRGB">
<feFlood flood-opacity="0" result="BackgroundImageFix"/>
<feColorMatrix in="SourceAlpha" type="matrix" values="0 0 0 0 0 0 0 0 0 0 0 0 0 0 0 0 0 0 127 0" result="hardAlpha"/>
<feOffset dy="4"/>
<feGaussianBlur stdDeviation="2"/>
<feComposite in2="hardAlpha" operator="out"/>
<feColorMatrix type="matrix" values="0 0 0 0 0 0 0 0 0 0 0 0 0 0 0 0 0 0 0.25 0"/>
<feBlend mode="normal" in2="BackgroundImageFix" result="effect1_dropShadow_0_1"/>
<feBlend mode="normal" in="SourceGraphic" in2="effect1_dropShadow_0_1" result="shape"/>
</filter>
</defs>
</svg>
