<svg width="386" height="358" viewBox="0 0 386 358" fill="none" xmlns="http://www.w3.org/2000/svg">
<g filter="url(#filter0_d_0_1)">
<path d="M4 87C4 75.9543 12.9543 67 24 67H199C210.046 67 219 75.9543 219 87V209C219 220.046 210.046 229 199 229H24C12.9543 229 4 220.046 4 209V87Z" fill="#0B0A0A"/>
<path d="M6.5 87C6.5 77.335 14.335 69.5 24 69.5H199C208.665 69.5 216.5 77.335 216.5 87V209C216.5 218.665 208.665 226.5 199 226.5H24C14.335 226.5 6.5 218.665 6.5 209V87Z" stroke="#C7F380" stroke-width="5"/>
</g>
<rect x="44.5" y="331.5" width="135" height="24" fill="#0B0B0B" stroke="#C7F380" stroke-width="5"/>
<rect x="96.5" y="231.5" width="29" height="95" fill="#C7F380" stroke="#0B0B0B" stroke-width="5"/>
<g style="mix-blend-mode:hard-light">
<ellipse cx="112" cy="190.5" rx="75" ry="83.5" fill="#C7F380"/>
</g>
<path d="M227 15C227 6.71573 233.716 0 242 0H371C379.284 0 386 6.71573 386 15V100C386 108.284 379.284 115 371 115H242C233.716 115 227 108.284 227 100V15Z" fill="#0B0B0B"/>
<defs>
<filter id="filter0_d_0_1" x="0" y="67" width="223" height="170" filterUnits="userSpaceOnUse" color-interpolation-filters="sRGB">
<feFlood flood-opacity="0" result="BackgroundImageFix"/>
<feColorMatrix in="SourceAlpha" type="matrix" values="0 0 0 0 0 0 0 0 0 0 0 0 0 0 0 0 0 0 127 0" result="hardAlpha"/>
<feOffset dy="4"/>
<feGaussianBlur stdDeviation="2"/>
<feComposite in2="hardAlpha" operator="out"/>
<feColorMatrix type="matrix" values="0 0 0 0 0 0 0 0 0 0 0 0 0 0 0 0 0 0 0.25 0"/>
<feBlend mode="normal" in2="BackgroundImageFix" result="effect1_dropShadow_0_1"/>
<feBlend mode="normal" in="SourceGraphic" in2="effect1_dropShadow_0_1" result="shape"/>
</filter>
</defs>
</svg>
